<?xml version="1.0" encoding="utf-8"?>
<!-- Generator: Adobe Illustrator 16.0.0, SVG Export Plug-In . SVG Version: 6.00 Build 0)  -->
<!DOCTYPE svg PUBLIC "-//W3C//DTD SVG 1.1//EN" "http://www.w3.org/Graphics/SVG/1.1/DTD/svg11.dtd">
<svg version="1.1" id="Layer_1" xmlns="http://www.w3.org/2000/svg" xmlns:xlink="http://www.w3.org/1999/xlink" x="0px" y="0px"
	 width="819.015px" height="236.483px" viewBox="0 0 819.015 236.483" enable-background="new 0 0 819.015 236.483"
	 xml:space="preserve">
<g>
	<defs>
		<rect id="SVGID_1_" width="819.015" height="236.483"/>
	</defs>
<rect x="41.666" y="40.679" clip-path="url(#SVGID_2_)" fill="#0D709A" width="121.69" height="121.689"/>
<path clip-path="url(#SVGID_2_)" fill="#FFFFFF" d="M122.342,85.032c-5.108,0-9.556,5.722-12.88,11.937l0.006,0.017
		c-4.251-11.29-10.075-22.716-19.395-22.716c-18.086,0.365-30.898,47.884-32.436,54.467h34.782
		c10.728-0.083,13.136-8.444,13.136-8.444l-2.408-7.851c0,0-3.227,8.25-10.728,8.25H68.785c2.157-6.909,11.944-37.814,21.288-37.814
		c8.582,0,15.804,27.544,18.058,33.65c2.292,6.21,7.347,12.227,15.866,12.21h23.388C140.529,105.807,131.859,85.032,122.342,85.032
		 M122.342,93.256c5.551,0,14.515,27.436,14.515,27.436h-11.02c-5.014,0-8.374-1.181-10.885-8.283c0,0-2.397-6.684-2.398-6.685
		C115.975,99.333,119.875,93.256,122.342,93.256"/>
	</g>
</svg>