<?xml version="1.0" encoding="utf-8"?>
<!-- Generator: Adobe Illustrator 16.0.0, SVG Export Plug-In . SVG Version: 6.00 Build 0)  -->
<!DOCTYPE svg PUBLIC "-//W3C//DTD SVG 1.1//EN" "http://www.w3.org/Graphics/SVG/1.1/DTD/svg11.dtd">
<svg version="1.1" id="Layer_1" xmlns="http://www.w3.org/2000/svg" xmlns:xlink="http://www.w3.org/1999/xlink" x="0px" y="0px"
	 width="819.015px" height="236.483px" viewBox="0 0 819.015 236.483" enable-background="new 0 0 819.015 236.483"
	 xml:space="preserve">
<polygon fill="#46413C" points="640.363,40.678 682.78,40.678 708.855,83.443 734.931,40.678 777.348,40.678 777.348,162.367 
	736.844,162.367 736.844,102.042 708.855,145.33 708.16,145.33 680.172,102.042 680.172,162.367 640.363,162.367 "/>
<polygon fill="#46413C" points="488.85,40.678 531.267,40.678 557.342,83.443 583.418,40.678 625.836,40.678 625.836,162.367 
	585.33,162.367 585.33,102.042 557.342,145.33 556.646,145.33 528.659,102.042 528.659,162.367 488.85,162.367 "/>
<rect x="433.644" y="40.678" fill="#46413C" width="40.679" height="121.689"/>
<g>
	<defs>
		<rect id="SVGID_1_" width="819.015" height="236.483"/>
	</defs>
	<clipPath id="SVGID_2_">
		<use xlink:href="#SVGID_1_"  overflow="visible"/>
	</clipPath>
	<path clip-path="url(#SVGID_2_)" fill="#46413C" d="M304.714,40.678h59.453c19.933,0,34.535,4.636,43.809,13.907
		c7.416,7.419,11.126,17.036,11.126,28.857v0.348c0,17.037-7.996,29.439-23.99,37.202l28.337,41.375h-46.417l-22.947-34.77h-8.692
		v34.77h-40.679V40.678z M362.951,98.567c10.432,0,15.647-3.939,15.647-11.822v-0.347c0-7.763-5.159-11.648-15.472-11.648h-17.732
		v23.817H362.951z"/>
	<polygon clip-path="url(#SVGID_2_)" fill="#46413C" points="213.697,75.098 177.886,75.098 177.886,40.678 290.188,40.678 
		290.188,75.098 254.375,75.098 254.375,162.367 213.697,162.367 	"/>
	<rect x="41.666" y="40.679" clip-path="url(#SVGID_2_)" fill="#0D709A" width="121.69" height="121.689"/>
	<path clip-path="url(#SVGID_2_)" fill="#FFFFFF" d="M122.342,85.032c-5.108,0-9.556,5.722-12.88,11.937l0.006,0.017
		c-4.251-11.29-10.075-22.716-19.395-22.716c-18.086,0.365-30.898,47.884-32.436,54.467h34.782
		c10.728-0.083,13.136-8.444,13.136-8.444l-2.408-7.851c0,0-3.227,8.25-10.728,8.25H68.785c2.157-6.909,11.944-37.814,21.288-37.814
		c8.582,0,15.804,27.544,18.058,33.65c2.292,6.21,7.347,12.227,15.866,12.21h23.388C140.529,105.807,131.859,85.032,122.342,85.032
		 M122.342,93.256c5.551,0,14.515,27.436,14.515,27.436h-11.02c-5.014,0-8.374-1.181-10.885-8.283c0,0-2.397-6.684-2.398-6.685
		C115.975,99.333,119.875,93.256,122.342,93.256"/>
	<path clip-path="url(#SVGID_2_)" fill="#46413C" d="M41.666,182.142h6.582c6.215,0,10.51,4.266,10.51,9.831v0.057
		c0,5.565-4.295,9.888-10.51,9.888h-6.582V182.142z M43.135,183.498v17.063h5.113c5.509,0,8.984-3.758,8.984-8.475v-0.057
		c0-4.69-3.475-8.532-8.984-8.532H43.135z"/>
	<rect x="82.74" y="182.142" clip-path="url(#SVGID_2_)" fill="#46413C" width="1.469" height="19.774"/>
	<path clip-path="url(#SVGID_2_)" fill="#46413C" d="M108.678,192.084v-0.055c0-5.162,3.742-9.888,9.451-9.888
		c3.114,0,5.081,0.928,6.993,2.513l-0.929,1.065c-1.502-1.312-3.25-2.295-6.145-2.295c-4.644,0-7.894,3.934-7.894,8.55v0.055
		c0,4.944,3.086,8.632,8.194,8.632c2.431,0,4.698-1.011,6.091-2.186v-5.49h-6.391v-1.311h7.757v7.375
		c-1.721,1.529-4.398,2.868-7.512,2.868C112.257,201.918,108.678,197.466,108.678,192.084"/>
	<rect x="150.444" y="182.142" clip-path="url(#SVGID_2_)" fill="#46413C" width="1.469" height="19.774"/>
	<polygon clip-path="url(#SVGID_2_)" fill="#46413C" points="182.453,183.498 175.56,183.498 175.56,182.142 190.816,182.142 
		190.816,183.498 183.922,183.498 183.922,201.917 182.453,201.917 	"/>
	<path clip-path="url(#SVGID_2_)" fill="#46413C" d="M219.089,182.142h1.402l9.144,19.775h-1.598l-2.497-5.498h-11.584l-2.497,5.498
		h-1.515L219.089,182.142z M224.923,195.102l-5.161-11.36l-5.189,11.36H224.923z"/>
	<polygon clip-path="url(#SVGID_2_)" fill="#46413C" points="252.784,182.142 254.253,182.142 254.253,200.562 265.864,200.562 
		265.864,201.917 252.784,201.917 	"/>
	<path clip-path="url(#SVGID_2_)" fill="#46413C" d="M304.74,192.084v-0.055c0-5.408,4.043-9.888,9.561-9.888
		c3.414,0,5.462,1.257,7.429,3.06l-1.011,1.037c-1.666-1.611-3.578-2.813-6.446-2.813c-4.589,0-8.058,3.742-8.058,8.55v0.055
		c0,4.835,3.524,8.604,8.086,8.604c2.758,0,4.643-1.065,6.583-2.978l0.956,0.929c-2.021,1.994-4.207,3.333-7.594,3.333
		C308.783,201.918,304.74,197.575,304.74,192.084"/>
	<path clip-path="url(#SVGID_2_)" fill="#46413C" d="M345.004,182.142h8.305c2.43,0,4.379,0.763,5.566,1.949
		c0.932,0.932,1.497,2.26,1.497,3.672v0.058c0,3.306-2.458,5.197-5.792,5.649l6.527,8.448h-1.865l-6.3-8.194h-6.469v8.194h-1.469
		V182.142z M353.14,192.397c3.305,0,5.763-1.667,5.763-4.521v-0.056c0-2.655-2.091-4.323-5.678-4.323h-6.752v8.899H353.14z"/>
	<path clip-path="url(#SVGID_2_)" fill="#46413C" d="M391.427,182.177h1.4l9.128,19.74h-1.596l-2.492-5.488h-11.564l-2.492,5.488
		h-1.512L391.427,182.177z M397.251,195.114l-5.152-11.34l-5.18,11.34H397.251z"/>
	<polygon clip-path="url(#SVGID_2_)" fill="#46413C" points="424.831,182.142 438.759,182.142 438.759,183.498 426.3,183.498 
		426.3,191.606 437.487,191.606 437.487,192.962 426.3,192.962 426.3,201.917 424.831,201.917 	"/>
	<polygon clip-path="url(#SVGID_2_)" fill="#46413C" points="467.425,183.498 460.53,183.498 460.53,182.142 475.787,182.142 
		475.787,183.498 468.894,183.498 468.894,201.917 467.425,201.917 	"/>
	<path clip-path="url(#SVGID_2_)" fill="#46413C" d="M497.326,198.841l0.935-1.071c2.115,1.951,4.065,2.857,6.895,2.857
		c2.883,0,4.86-1.621,4.86-3.818v-0.055c0-2.032-1.07-3.214-5.438-4.093c-4.614-0.934-6.482-2.499-6.482-5.41v-0.055
		c0-2.857,2.609-5.055,6.18-5.055c2.802,0,4.643,0.77,6.593,2.335l-0.907,1.126c-1.812-1.566-3.625-2.17-5.74-2.17
		c-2.83,0-4.696,1.62-4.696,3.625v0.056c0,2.032,1.044,3.269,5.603,4.202c4.45,0.907,6.318,2.5,6.318,5.301v0.055
		c0,3.104-2.664,5.247-6.373,5.247C501.996,201.918,499.634,200.902,497.326,198.841"/>
	<polygon clip-path="url(#SVGID_2_)" fill="#46413C" points="535.039,182.142 536.424,182.142 544.362,193.837 552.301,182.142 
		553.685,182.142 553.685,201.917 552.216,201.917 552.216,184.741 544.391,196.125 544.277,196.125 536.452,184.741 
		536.452,201.917 535.039,201.917 	"/>
	<path clip-path="url(#SVGID_2_)" fill="#46413C" d="M585.522,182.177h1.4l9.128,19.74h-1.597l-2.491-5.488h-11.564l-2.491,5.488
		h-1.513L585.522,182.177z M591.347,195.114l-5.152-11.34l-5.18,11.34H591.347z"/>
	<polygon clip-path="url(#SVGID_2_)" fill="#46413C" points="618.927,182.142 620.312,182.142 633.955,199.347 633.955,182.142 
		635.368,182.142 635.368,201.917 634.267,201.917 620.339,184.345 620.339,201.917 618.927,201.917 	"/>
	<path clip-path="url(#SVGID_2_)" fill="#46413C" d="M658.718,198.841l0.934-1.071c2.115,1.951,4.065,2.857,6.895,2.857
		c2.884,0,4.86-1.621,4.86-3.818v-0.055c0-2.032-1.07-3.214-5.438-4.093c-4.614-0.934-6.482-2.499-6.482-5.41v-0.055
		c0-2.857,2.609-5.055,6.181-5.055c2.801,0,4.642,0.77,6.592,2.335l-0.906,1.126c-1.813-1.566-3.626-2.17-5.741-2.17
		c-2.83,0-4.697,1.62-4.697,3.625v0.056c0,2.032,1.045,3.269,5.604,4.202c4.45,0.907,6.318,2.5,6.318,5.301v0.055
		c0,3.104-2.664,5.247-6.373,5.247C663.387,201.918,661.024,200.902,658.718,198.841"/>
	<polygon clip-path="url(#SVGID_2_)" fill="#46413C" points="696.431,182.142 697.899,182.142 697.899,191.294 710.557,191.294 
		710.557,182.142 712.025,182.142 712.025,201.917 710.557,201.917 710.557,192.652 697.899,192.652 697.899,201.917 
		696.431,201.917 	"/>
	<rect x="736.638" y="182.142" clip-path="url(#SVGID_2_)" fill="#46413C" width="1.47" height="19.774"/>
	<path clip-path="url(#SVGID_2_)" fill="#46413C" d="M762.827,182.142h7.178c4.35,0,7.344,2.231,7.344,6.045v0.058
		c0,4.152-3.587,6.3-7.712,6.3h-5.339v7.373h-1.471V182.142z M769.722,193.188c3.672,0,6.158-1.921,6.158-4.859v-0.057
		c0-3.136-2.43-4.774-5.988-4.774h-5.594v9.69H769.722z"/>
</g>
</svg>
